<?xml version="1.0" encoding="UTF-8"?>
<svg width="48pt" height="48pt" version="1.0" viewBox="0 0 48 48" xmlns="http://www.w3.org/2000/svg">
 <g transform="translate(0 48) scale(.1 -.1)">
  <path d="m99.002 383c-61-7-69-25-72-150-1-81 2-114 12-126 12-15 38-17 197-17 238 0 230-6 220 159-4 63-12 121-18 128-8 10-48 13-157 11-80-1-162-3-182-5zm300.67-21.576c0-15-140.88-169.03-158.87-167.24-13.931 1.3888-182.44 152.84-176.44 158.84 19 20 335.31 28.402 335.31 8.4022zm40.358-170.22c1-28-3.054-42.588-7.054-45.588-5-3-21.794 8.7614-54.794 29.761-32 22-67.185 36.62-73.185 38.62-5 2 33.358 25.24 71.358 64.24l51.468 75.587 5.4022-52.022c4-32 5.8044-81.598 6.8044-110.6zm-327.8 69.446c35-35 69.771-51.653 66.771-53.653-2-2-41.967-1.468-76.967-22.468-72.445-43.048-51.168-55.332-50.697 34.87 3 36 1.2176 78.793 1.2176 94.793 0 15-8.5539 25.804-4.5539 25.804s28.229-43.347 64.229-79.347zm106.58-78.033c16-10 30.576-10.598 46.576-0.5978 11 6 20.62 17.978 27.62 17.978 23 0 131.23-70.033 124.23-81.033-8-13-345.86-12.207-352.86 0.79341-5 8 109.63 79.24 128.63 80.24 4 0 14.804-11.38 25.804-17.38z" stroke-width="0"/>
 </g>
</svg>
